HIERARCHY
ROOT joint_Root
{
	OFFSET 0.0 0.0 0.0
	CHANNELS 6 Xposition Yposition Zposition Zrotation Xrotation Yrotation 
	JOINT Hips
	{
		OFFSET 4.5925 91.4895 -427.239
		CHANNELS 6 Xposition Yposition Zposition Zrotation Xrotation Yrotation 
		JOINT Spine
		{
			OFFSET 15.7357 0.0 0.0
			CHANNELS 6 Xposition Yposition Zposition Zrotation Xrotation Yrotation 
			JOINT Chest
			{
				OFFSET 8.98455 -0.406207 0.0
				CHANNELS 6 Xposition Yposition Zposition Zrotation Xrotation Yrotation 
				JOINT Neck
				{
					OFFSET 16.3773 0.0 0.0
					CHANNELS 6 Xposition Yposition Zposition Zrotation Xrotation Yrotation 
					JOINT Head
					{
						OFFSET 6.45672 0.0 0.0
						CHANNELS 6 Xposition Yposition Zposition Zrotation Xrotation Yrotation 
						End Site
						{
							OFFSET 0.0 0.0 0.0
						}
					}
				}
				JOINT Shoulder_L
				{
					OFFSET 12.9942 -0.242716 4.98039
					CHANNELS 6 Xposition Yposition Zposition Zrotation Xrotation Yrotation 
					JOINT UpperArm_L
					{
						OFFSET 5.34809 0.0 0.0
						CHANNELS 6 Xposition Yposition Zposition Zrotation Xrotation Yrotation 
						JOINT LowerArm_L
						{
							OFFSET 24.3286 1.87007e-05 0.0
							CHANNELS 6 Xposition Yposition Zposition Zrotation Xrotation Yrotation 
							JOINT Hand_L
							{
								OFFSET 22.2916 0.0 0.0
								CHANNELS 6 Xposition Yposition Zposition Zrotation Xrotation Yrotation 
								End Site
								{
									OFFSET 0.0 0.0 0.0
								}
							}
						}
					}
				}
				JOINT Shoulder_R
				{
					OFFSET 12.9945 -0.242716 -4.98039
					CHANNELS 6 Xposition Yposition Zposition Zrotation Xrotation Yrotation 
					JOINT UpperArm_R
					{
						OFFSET -5.34813 0.0 0.0
						CHANNELS 6 Xposition Yposition Zposition Zrotation Xrotation Yrotation 
						JOINT LowerArm_R
						{
							OFFSET -24.3289 0.000322201 0.0
							CHANNELS 6 Xposition Yposition Zposition Zrotation Xrotation Yrotation 
							JOINT Hand_R
							{
								OFFSET -22.2915 -0.000108084 0.0
								CHANNELS 6 Xposition Yposition Zposition Zrotation Xrotation Yrotation 
								End Site
								{
									OFFSET 0.0 0.0 0.0
								}
							}
						}
					}
				}
			}
		}
		JOINT UpperLeg_L
		{
			OFFSET -2.19248 -6.46944 0.0
			CHANNELS 6 Xposition Yposition Zposition Zrotation Xrotation Yrotation 
			JOINT LowerLeg_L
			{
				OFFSET 39.0811 0.0 -1.23785e-05
				CHANNELS 6 Xposition Yposition Zposition Zrotation Xrotation Yrotation 
				JOINT Foot_L
				{
					OFFSET 40.9854 0.0 -1.26872e-05
					CHANNELS 6 Xposition Yposition Zposition Zrotation Xrotation Yrotation 
					JOINT Toes_L
					{
						OFFSET 11.7543 0.0 0.0
						CHANNELS 6 Xposition Yposition Zposition Zrotation Xrotation Yrotation 
						End Site
						{
							OFFSET 0.0 0.0 0.0
						}
					}
				}
			}
		}
		JOINT UpperLeg_R
		{
			OFFSET -2.19251 6.46944 0.0
			CHANNELS 6 Xposition Yposition Zposition Zrotation Xrotation Yrotation 
			JOINT LowerLeg_R
			{
				OFFSET -39.0811 -0.00228153 -0.0401928
				CHANNELS 6 Xposition Yposition Zposition Zrotation Xrotation Yrotation 
				JOINT Foot_R
				{
					OFFSET -40.9854 0.0 0.0
					CHANNELS 6 Xposition Yposition Zposition Zrotation Xrotation Yrotation 
					JOINT Toes_R
					{
						OFFSET -11.7543 0.0 0.0
						CHANNELS 6 Xposition Yposition Zposition Zrotation Xrotation Yrotation 
						End Site
						{
							OFFSET 0.0 0.0 0.0
						}
					}
				}
			}
		}
	}
}
MOTION
Frames:	7
Frame Time:	0.0333333
0.000000 0.000000 0.000000 0.000000 0.000000 -0.000000 3.597400 92.314000 -61.174200 86.257000 -1.034160 -0.331184 15.735700 0.000005 -0.000001 47.683700 82.238200 -46.283500 8.984550 -0.406207 -0.000000 3.897370 -10.483900 3.161100 16.377300 -0.000001 -0.000001 1.309400 -0.505633 -1.289130 6.456720 -0.000001 -0.000000 1.372470 4.876730 -1.728740 12.994200 -0.242716 4.980390 -88.120000 -6.167370 -73.011000 5.348090 -0.000007 -0.000001 -68.692000 3.013220 -52.251200 24.328600 0.000019 0.000005 3.571080 -2.090550 -120.308000 22.291600 -0.000001 0.000005 8.020990 5.504100 -6.699400 12.994500 -0.242716 -4.980390 90.830300 -2.661400 -72.666600 -5.348130 -0.000001 -0.000004 -69.911400 43.374400 40.436600 -24.328900 0.000322 -0.000009 -13.709300 -3.626920 -75.461200 -22.291500 -0.000108 -0.000004 21.459900 5.677800 -18.904900 -2.192480 -6.469440 -0.000000 -175.649000 -6.750440 -1.285310 39.081100 -0.000007 -0.000012 0.001378 -0.003630 20.785500 40.985400 -0.000006 -0.000013 4.906510 1.006110 -69.151300 11.754300 -0.000000 0.000003 -0.409746 -0.505999 -17.471100 -2.192510 6.469440 -0.000001 -178.084000 0.405699 150.547000 -39.081100 -0.002282 -0.040193 0.026582 -0.013192 60.572200 -40.985400 0.000008 0.000006 3.720670 0.073216 -50.791800 -11.754300 -0.000006 -0.000006 -0.022668 -0.181643 -23.999700
0.000000 0.000000 0.000000 0.000000 0.000000 -0.000000 3.301630 93.159000 -57.199600 85.752300 -1.366760 -1.675800 15.735700 0.000005 -0.000001 43.184900 82.127500 -41.369100 8.984550 -0.406207 -0.000000 3.252660 -11.539900 3.965970 16.377300 -0.000001 -0.000001 1.632240 0.366747 -0.921586 6.456720 -0.000001 -0.000000 1.557650 5.864000 -1.774960 12.994200 -0.242716 4.980390 -87.433600 -7.785440 -71.691700 5.348090 -0.000007 -0.000001 -67.705200 -0.648318 -55.162200 24.328600 0.000019 0.000005 3.163120 -1.894600 -120.891000 22.291600 -0.000001 0.000005 8.670280 5.495790 -6.364540 12.994500 -0.242716 -4.980390 91.842900 -5.781230 -72.285300 -5.348130 -0.000001 -0.000004 -69.941900 41.500500 42.266200 -24.328900 0.000322 -0.000009 -13.736200 -3.079940 -77.601300 -22.291500 -0.000108 -0.000004 21.889500 5.676440 -18.575000 -2.192480 -6.469440 -0.000000 -174.195000 -9.023430 2.320460 39.081100 -0.000007 -0.000012 -0.004393 0.015426 15.893000 40.985400 -0.000006 -0.000013 4.409020 4.418620 -65.468100 11.754300 -0.000000 0.000003 -0.003199 -0.042845 -18.319300 -2.192510 6.469440 -0.000001 -176.420000 3.380390 149.460000 -39.081100 -0.002282 -0.040193 0.021577 -0.017366 46.528500 -40.985400 0.000008 0.000006 3.391440 3.525810 -54.383100 -11.754300 -0.000006 -0.000006 -0.024192 -0.189492 -24.323900
0.000000 0.000000 0.000000 0.000000 0.000000 -0.000000 3.178880 93.101900 -53.076500 86.709700 -1.540930 -1.969810 15.735700 0.000005 -0.000001 41.301200 81.885400 -39.723500 8.984550 -0.406207 -0.000000 3.180200 -12.242800 3.502490 16.377300 -0.000001 -0.000001 1.435350 0.649958 -0.510815 6.456720 -0.000001 -0.000000 1.464390 6.469380 -0.521458 12.994200 -0.242716 4.980390 -86.769100 -9.094230 -70.346200 5.348090 -0.000007 -0.000001 -66.049800 -2.503820 -57.484000 24.328600 0.000019 0.000005 3.016610 -1.790270 -120.662000 22.291600 -0.000001 0.000005 9.184660 5.490980 -6.174370 12.994500 -0.242716 -4.980390 92.342300 -7.275990 -72.101100 -5.348130 -0.000001 -0.000004 -69.589600 39.722300 42.744700 -24.328900 0.000322 -0.000009 -12.863600 -2.528540 -79.064300 -22.291500 -0.000108 -0.000004 22.255900 5.675220 -18.308700 -2.192480 -6.469440 -0.000000 -173.801000 -11.872300 5.454090 39.081100 -0.000007 -0.000012 -0.006165 0.023933 14.443500 40.985400 -0.000006 -0.000013 3.643550 8.589460 -63.843400 11.754300 -0.000000 0.000003 -0.007876 -0.087025 -20.120400 -2.192510 6.469440 -0.000001 -175.665000 8.211130 150.075000 -39.081100 -0.002282 -0.040193 0.018380 -0.024283 31.843700 -40.985400 0.000008 0.000006 -0.691498 9.533990 -54.103800 -11.754300 -0.000006 -0.000006 -0.025524 -0.196165 -24.599700
0.000000 0.000000 0.000000 0.000000 0.000000 -0.000000 3.002060 92.109900 -48.669800 87.820100 -1.485640 -1.491390 15.735700 0.000005 -0.000001 42.421100 81.622600 -41.252900 8.984550 -0.406207 -0.000000 3.738120 -12.393800 2.746800 16.377300 -0.000001 -0.000001 1.309940 0.379970 -0.181463 6.456720 -0.000001 -0.000000 0.411036 6.247850 1.556720 12.994200 -0.242716 4.980390 -86.284000 -9.980600 -69.457100 5.348090 -0.000007 -0.000001 -63.636900 -2.607300 -59.284900 24.328600 0.000019 0.000005 3.045380 -1.754840 -119.926000 22.291600 -0.000001 0.000005 9.172310 5.484970 -5.939800 12.994500 -0.242716 -4.980390 92.336000 -7.221870 -72.021900 -5.348130 -0.000001 -0.000004 -68.992200 37.824800 41.928800 -24.328900 0.000322 -0.000009 -10.822600 -1.893840 -80.190100 -22.291500 -0.000108 -0.000004 21.768900 5.672460 -17.784800 -2.192480 -6.469440 -0.000000 -173.413000 -12.878500 8.021700 39.081100 -0.000007 -0.000012 -0.012313 0.041819 16.406300 40.985400 -0.000006 -0.000013 2.908770 11.242900 -64.828400 11.754300 -0.000000 0.000003 -0.017680 -0.154096 -22.868600 -2.192510 6.469440 -0.000001 -174.591000 12.867800 150.160000 -39.081100 -0.002282 -0.040193 0.012521 -0.022385 22.350100 -40.985400 0.000008 0.000006 -3.079110 12.969700 -54.716500 -11.754300 -0.000006 -0.000006 -0.026095 -0.198972 -24.715800
0.000000 0.000000 0.000000 0.000000 0.000000 -0.000000 2.676120 90.580100 -43.974700 88.573900 -1.041720 -0.754440 15.735700 0.000005 -0.000001 45.049100 81.413600 -44.128900 8.984550 -0.406207 -0.000000 4.569300 -12.137600 2.329710 16.377300 -0.000001 -0.000001 1.306390 0.020297 -0.124691 6.456720 -0.000001 -0.000000 -0.845651 5.296720 3.245930 12.994200 -0.242716 4.980390 -86.505900 -9.537530 -69.771100 5.348090 -0.000007 -0.000001 -59.774800 -1.557300 -59.919100 24.328600 0.000019 0.000005 3.158390 -1.744130 -118.880000 22.291600 -0.000001 0.000005 8.909700 5.482610 -5.848620 12.994500 -0.242716 -4.980390 91.851100 -5.751270 -72.124700 -5.348130 -0.000001 -0.000004 -68.403800 36.056600 40.058600 -24.328900 0.000322 -0.000009 -9.711720 -1.529560 -81.132900 -22.291500 -0.000108 -0.000004 22.116400 5.669470 -17.300100 -2.192480 -6.469440 -0.000000 -173.203000 -11.567300 10.160700 39.081100 -0.000007 -0.000012 -0.020189 0.055249 20.072800 40.985400 -0.000006 -0.000013 2.586210 11.166000 -67.419600 11.754300 -0.000000 0.000003 -0.028220 -0.209197 -25.143100 -2.192510 6.469440 -0.000001 -173.034000 16.733000 148.646000 -39.081100 -0.002282 -0.040193 0.007335 -0.010739 20.498200 -40.985400 0.000008 0.000006 -1.598030 9.399270 -57.639900 -11.754300 -0.000006 -0.000006 -0.024956 -0.193340 -24.482900
0.000000 0.000000 0.000000 0.000000 0.000000 -0.000000 2.134910 88.843500 -38.936500 88.965300 0.242990 -0.756741 15.735700 0.000005 -0.000001 46.057600 81.485300 -45.110000 8.984550 -0.406207 -0.000000 4.675230 -11.822000 2.382460 16.377300 -0.000001 -0.000001 0.967629 -0.582931 -0.286477 6.456720 -0.000001 -0.000000 -0.845154 4.219160 3.718140 12.994200 -0.242716 4.980390 -87.570500 -7.149060 -71.175700 5.348090 -0.000007 -0.000001 -54.488800 1.497780 -58.756900 24.328600 0.000019 0.000005 3.181920 -1.645950 -117.324000 22.291600 -0.000001 0.000005 8.670430 5.481080 -5.789760 12.994500 -0.242716 -4.980390 90.801600 -2.527880 -72.400800 -5.348130 -0.000001 -0.000004 -67.320800 34.258300 37.484700 -24.328900 0.000322 -0.000009 -9.529090 -1.372730 -81.875600 -22.291500 -0.000108 -0.000004 22.861700 5.667290 -16.980600 -2.192480 -6.469440 -0.000000 -172.881000 -9.329720 11.569000 39.081100 -0.000007 -0.000012 -0.022697 0.051438 23.809700 40.985400 -0.000006 -0.000013 2.587490 10.639100 -69.720700 11.754300 -0.000000 0.000003 -0.046966 -0.286784 -28.379400 -2.192510 6.469440 -0.000001 -172.113000 19.259200 145.588000 -39.081100 -0.002282 -0.040193 0.003892 -0.001219 25.483900 -40.985400 0.000008 0.000006 -0.033020 4.587040 -61.070400 -11.754300 -0.000006 -0.000006 -0.024818 -0.192646 -24.454200
0.000000 0.000000 0.000000 0.000000 0.000000 -0.000000 1.417600 87.161100 -33.445100 88.988600 1.953030 -1.696080 15.735700 0.000005 -0.000001 44.882100 81.931300 -43.658700 8.984550 -0.406207 -0.000000 3.809440 -11.461600 2.832790 16.377300 -0.000001 -0.000001 0.653245 -1.338360 -0.457939 6.456720 -0.000001 -0.000000 0.070325 3.558600 3.140870 12.994200 -0.242716 4.980390 -88.901100 -3.643900 -73.210700 5.348090 -0.000007 -0.000001 -49.863100 7.528290 -54.366900 24.328600 0.000019 0.000005 3.422240 -1.617060 -115.264000 22.291600 -0.000001 0.000005 8.862850 5.484660 -5.927890 12.994500 -0.242716 -4.980390 89.252100 2.444410 -72.977200 -5.348130 -0.000001 -0.000004 -65.221600 32.770500 33.518500 -24.328900 0.000322 -0.000009 -10.294700 -1.466760 -81.976300 -22.291500 -0.000108 -0.000004 24.506500 5.668600 -17.168000 -2.192480 -6.469440 -0.000000 -171.649000 -8.004160 12.269800 39.081100 -0.000007 -0.000012 -0.019567 0.038086 27.193300 40.985400 -0.000006 -0.000013 2.548820 11.403400 -70.177500 11.754300 -0.000000 0.000003 -0.091888 -0.423981 -34.234700 -2.192510 6.469440 -0.000001 -171.127000 20.378500 141.593000 -39.081100 -0.002282 -0.040193 0.188050 -0.267013 34.681300 -40.985400 0.000008 0.000006 7.120930 1.619210 -64.001400 -11.754300 -0.000006 -0.000006 -0.025439 -0.195741 -24.582200
